<?xml version="1.0" encoding="utf-8"?>
<!-- Generator: Adobe Illustrator 19.0.0, SVG Export Plug-In . SVG Version: 6.00 Build 0)  -->
<svg version="1.1" id="Layer_1" xmlns="http://www.w3.org/2000/svg" xmlns:xlink="http://www.w3.org/1999/xlink" x="0px" y="0px"
	 viewBox="0 0 569.6 179.3" style="enable-background:new 0 0 569.6 179.3;" xml:space="preserve">
<style type="text/css">
	.st0{fill:#191919;}
	.st1{fill:#EF4136;}
</style>
<path id="XMLID_6_" class="st0" d="M598.8,0"/>
<text id="XMLID_11_" transform="matrix(1 0 0 1 711.1678 -105)" style="font-family:'Dosis-Medium'; font-size:12px;">v</text>
<path id="XMLID_2_" class="st0" d="M20.1,91.9c0.8,0,1.7,0.6,1.8,1.5l2.6,28c0.1,1.3,0.5,2.2,0.9,2.2c0.5,0,0.9-0.9,1.1-2.2l2.8-28
	c0.2-0.9,0.6-1.5,1.4-1.5h12.1c0.6,0,1.3,0.6,1.4,1.3l3.1,28.3c0.1,1.3,0.5,2.2,0.9,2.2s0.9-0.9,1.1-2.2l2.4-28.2
	c0.1-0.8,0.6-1.4,1.3-1.4h19.2c1.2,0,1.5,0.7,1.4,1.7l-11,85.3c-0.1,1.2-0.8,1.8-1.5,1.8H43.8c-0.7,0-1.3-0.6-1.4-1.3l-4.5-28.6
	c-0.1-1.1-0.5-1.9-0.9-1.9s-0.8,0.9-0.9,2l-4.1,28.4c-0.2,0.8-0.6,1.4-1.3,1.4H13c-0.8,0-1.5-0.7-1.7-1.5L0,93.4
	c-0.1-1.1,0.5-1.5,1.3-1.5H20.1z"/>
<path id="XMLID_4_" class="st0" d="M77.5,180.6c-0.8,0-1.5-0.8-1.5-1.8V93c0-0.6,0.5-1.2,1.1-1.2h20.2c0.8,0,1.4,0.5,1.4,1.2v86
	c0,0.7-0.6,1.5-1.4,1.5H77.5z"/>
<path id="XMLID_7_" class="st0" d="M134.6,120.5c-0.7,0-1.2-0.4-1.4-1.3c-0.7-2.8-1.9-4.3-3.6-4.3c-1.2,0-1.8,0.9-1.8,2.1
	c0,3.8,5.6,8,12.7,12.9c7.7,5.2,13.5,13.7,13.5,22.5c0,15.9-9.5,28.5-25,28.5c-18,0-26.3-13-26.3-32c0-0.6,0.5-1.2,1.4-1.2l16.3-0.8
	c0.8,0,1.3,0.5,1.4,1.5c0.5,4.7,2.5,9.8,5.3,9.8c1.7,0,2.7-1.1,2.7-3.8c0-2.8-6.6-8-14.6-14.4s-11.8-15.3-11.8-23.3
	c0-12.1,9-25.2,24.9-25.2c15.9,0,25.7,12.4,25.7,26.5c0,0.8-0.5,1.5-1.4,1.5L134.6,120.5z"/>
<path id="XMLID_9_" class="st0" d="M159.6,180.6c-0.9,0-1.4-0.6-1.4-1.4V93.6c0-0.9,0.6-1.8,1.5-1.8h21.2c18.8,0,29.9,12,29.9,33.5
	v22c0,19.2-10.8,33.3-29.1,33.3H159.6z M187,118.5c0-1.2-0.4-2.1-1.1-2.7c-0.5-0.4-1.4-0.7-2-0.7c-0.5,0-0.7,0.4-0.7,1.1v39.3
	c0,0.7,0.2,0.9,0.7,0.9c0.7,0,3.1,0,3.1-3.4V118.5z"/>
<path id="XMLID_13_" class="st0" d="M214.1,118.8c0-18.3,11.5-27.2,24.6-27.2c13.1,0,24.6,8.9,24.6,27.2v35
	c0,18.2-11.6,27.1-24.6,27.1s-24.6-8.8-24.6-27.1V118.8z M236.8,153.5c0,1.8,0.6,3.1,1.9,3.1s1.9-1.3,1.9-3.1v-34.3
	c0-1.5-0.6-3.2-1.9-3.2s-1.9,1.5-1.9,3.2V153.5z"/>
<path id="XMLID_16_" class="st0" d="M268.3,180.6c-0.5,0-0.9-0.6-0.9-1.1V93c0-0.6,0.4-1.2,0.9-1.2H300c0.6,0,1.1,0.5,1.2,1.2
	l3.6,23.6c0.1,0.8,0.4,1.2,0.6,1.2s0.5-0.5,0.5-1.3l2.8-23.3c0.1-0.7,0.6-1.3,1.3-1.3h32.9c0.8,0,1.3,0.5,1.3,1.3v86.3
	c0,0.7-0.6,1.2-1.3,1.2h-21.4c-0.7,0-1.3-0.5-1.3-1.3v-37c0-0.9-0.1-1.3-0.4-1.3c-0.2,0-0.5,0.5-0.8,2.4l-6.2,36.3
	c-0.1,0.7-0.7,0.9-1.3,0.9h-13.4c-0.6,0-1.1-0.5-1.3-1.3l-5.4-33.8c-0.4-2-0.8-2.4-1.2-2.4c-0.4,0-0.6,0.6-0.6,1.5v34.7
	c0,0.8-0.4,1.3-1.2,1.3H268.3z"/>
<path id="XMLID_18_" class="st1" d="M362.2,180.6c-0.9,0-1.4-0.6-1.4-1.4V93.6c0-0.9,0.6-1.8,1.5-1.8h21.2c18.8,0,29.9,12,29.9,33.5
	v22c0,19.2-10.8,33.3-29.1,33.3H362.2z M389.6,118.5c0-1.2-0.4-2.1-1.1-2.7c-0.5-0.4-1.4-0.7-2-0.7c-0.5,0-0.7,0.4-0.7,1.1v39.3
	c0,0.7,0.2,0.9,0.7,0.9c0.7,0,3.1,0,3.1-3.4V118.5z"/>
<path id="XMLID_21_" class="st1" d="M416.7,118.8c0-18.3,11.5-27.2,24.6-27.2c13.1,0,24.6,8.9,24.6,27.2v35
	c0,18.2-11.6,27.1-24.6,27.1c-13,0-24.6-8.8-24.6-27.1V118.8z M439.4,153.5c0,1.8,0.6,3.1,1.9,3.1s1.9-1.3,1.9-3.1v-34.3
	c0-1.5-0.6-3.2-1.9-3.2s-1.9,1.5-1.9,3.2V153.5z"/>
<path id="XMLID_24_" class="st1" d="M501.1,120.5c-0.7,0-1.2-0.4-1.4-1.3c-0.7-2.8-1.9-4.3-3.6-4.3c-1.2,0-1.8,0.9-1.8,2.1
	c0,3.8,5.6,8,12.7,12.9c7.7,5.2,13.5,13.7,13.5,22.5c0,15.9-9.5,28.5-25,28.5c-18,0-26.3-13-26.3-32c0-0.6,0.5-1.2,1.4-1.2L487,147
	c0.8,0,1.3,0.5,1.4,1.5c0.5,4.7,2.5,9.8,5.3,9.8c1.7,0,2.7-1.1,2.7-3.8c0-2.8-6.6-8-14.6-14.4c-7.9-6.4-11.8-15.3-11.8-23.3
	c0-12.1,9-25.2,24.9-25.2s25.7,12.4,25.7,26.5c0,0.8-0.5,1.5-1.4,1.5L501.1,120.5z"/>
<path id="XMLID_26_" class="st1" d="M524.7,93.4c0-0.7,0.7-1.5,1.5-1.5h42c0.7,0,1.2,0.6,1.2,1.3v21.3c0,0.7-0.6,1.2-1.3,1.2h-19.8
	c-0.5,0-0.8,0.4-0.8,0.8v6.6c0,0.5,0.5,0.8,0.8,0.8h9.3c0.5,0,0.8,0.4,0.8,0.8v21.5c0,0.6-0.5,1.1-0.9,1.1H548
	c-0.5,0-0.8,0.4-0.8,0.9v7c0,0.5,0.4,0.8,0.7,0.8h20.5c0.8,0,1.3,0.6,1.3,1.2v22c0,0.7-0.6,1.3-1.3,1.3H526c-0.7,0-1.3-0.7-1.3-1.5
	V93.4z"/>
<path id="XMLID_91_" class="st0" d="M362.9,60.6c-3.4,0.7-6.7,1.5-10.1,2.2c-3.5,0.6-7,1.2-10.5,1.6c-4.8,0.6-9.7,1.7-14.6,1.6
	c-11.3-0.1-21.6-3.9-31.2-9.5c-0.2-0.1-0.4-0.4-0.8-1c15.2,1.4,27.9-5.1,40.9-10.8c-0.7,0-1.3,0.1-2,0.2
	c-14.5,3.2-28.8,7.8-43.9,8.2c-9.1,0.3-18.3,1.5-27.4,1.4c-6.2,0-12.4-1.5-18.6-2.3c0-0.2,0-0.5,0-0.7c1.2-0.8,2.5-1.5,3.7-2.3
	c0-0.3,0-0.7-0.1-1c-3.7-0.3-7.4-0.6-11-0.9c2.1-3,4.3-6.1,6.6-9.2c0.3-0.5,0.8-0.9,1.2-1.2c5.7-2.9,11.2-6,17-8.6
	c17.4-7.8,35.4-14.2,53.7-19.6c7.9-2.3,15.6-4.3,23.7-0.8c1.4,0.6,2.7,0.7,4.6,0.2c7.8-2.4,15.7-2.9,23.2,1.6
	c2.5,1.5,5.2,2.5,7.8,3.9c2.5,1.3,5,2.6,7.5,3.9c-6.7-5.7-14.4-9.5-23.3-12.3c1.4-0.4,2.1-0.7,2.8-0.8c18.2-3.5,36.6-5.1,55.2-3.9
	c18.5,1.2,32,10.1,42.4,24.7c3.1,4.3,5.7,9,8.5,13.5c0.2-0.1,0.4-0.2,0.7-0.3c-1.3-3-2.3-6.1-3.9-8.9c-5.8-10.1-13.9-18.1-23.5-26.3
	c2.2-0.4,3.7-1.2,4.8-0.9c3.6,1.1,7.5,1.9,10.4,4.1c5.8,4.3,11.4,9.2,16.5,14.3c4.5,4.5,8.3,9.7,12.5,14.6
	c-5.6-11.5-9.4-24.1-20-32.6c5.4,1.4,10.2,4,14.5,7.3c6.7,5,12,11.4,16.5,18.5c5,7.8,9.6,15.9,14.4,23.8c0.8,1.3,1.9,2.3,2.8,3.5
	c0.2-0.1,0.4-0.3,0.6-0.4c-1.4-2.2-2.8-4.5-4.2-6.7c0.1,0,0.2-0.1,0.2-0.1c1.8,2.4,3.7,4.8,5.5,7.2c-1.1-5.4-2.1-10.7-3.2-16
	c1.8,3.8,3,7.8,4.3,11.8c1.4,4.2,3.8,7.5,8.3,9c3.6,1.2,7.1,2.6,10.5,4.2c10.4,5,20.8,10.1,31.2,15.2c1.6,0.8,3,2.2,5.1,3.7
	c-4.5,0.5-8,0.9-11.5,1.1c-0.9,0.1-2-0.4-2.8-0.9c-4.1-2.7-7.9-5.8-12.2-8.3c-16-9.2-33.5-15.1-51-20.4
	c-23.8-7.3-48.4-11.8-73.1-14.9c-30.9-3.9-61.8-6.5-92.9-7c-2.6,0-5.3,0-7.9,0c0,0.1,0,0.2,0,0.3c25.4,2,50.8,4,76.2,6
	c0,0.3,0.1,0.6,0.1,0.9C385.5,47,374.1,53.8,362.9,60.6L362.9,60.6z M493.2,35.7c-2.4-4.2-4.5-8.5-6.9-12.7
	c-3.3-6-7.3-11.5-12.8-15.7c8.4,9.5,13.5,21.1,20,31.7c2.4,4,5.3,7.7,8,11.5c0.2-0.2,0.5-0.3,0.7-0.5
	C499.2,45.3,496.1,40.6,493.2,35.7z M482,40.2c-9.4-11.8-16.2-25.8-29.7-33.9C464.3,15.7,471.1,29.8,482,40.2z M445.4,4
	c4.8,4.7,9.7,9.1,14,14.1c4.3,5,8,10.5,12,15.8C465,22,457.6,10.9,445.4,4z M353.2,13.3c0.1-0.2,0.2-0.5,0.3-0.7
	c-2.9-1.2-5.9-2.4-8.8-3.7c-0.1,0.3-0.2,0.5-0.3,0.8C347.4,10.9,350.3,12.1,353.2,13.3z"/>
<path id="XMLID_90_" class="st0" d="M362.9,60.6c-0.1,0.3-0.3,0.6-0.4,0.9c1,0.3,2,0.7,3,1c13,3.5,26.4,4.4,39.8,5.6
	c4.5,0.4,9,1.1,13.4,2.2c18.4,4.8,36.1,3.3,53-5.7c5.3-2.8,10.7-5.2,16.3-8c-1.1-0.3-2.1-0.7-3.2-1c-20.4-6.3-41.4-10.1-62.5-13.3
	c-6-0.9-12-1.7-18-2.6c-2.8-0.4-5.3,0-7.7,1.6c-7.6,5.1-15.2,10.3-23,15C370.2,58.5,366.4,59.3,362.9,60.6
	C362.8,60.6,362.9,60.6,362.9,60.6z"/>
<path id="XMLID_89_" class="st0" d="M450.5,73.7c10.9,5.8,21.6,8.6,33,4.6c8-2.8,15.6-6.5,23.4-9.8c2-0.8,4-1.7,6.7-2.9
	c-2.5-1-4.3-1.9-6.2-2.5c-5-1.8-10-3.6-15.1-5.1c-1.4-0.4-3.3-0.3-4.6,0.4c-6,3.1-11.6,6.9-17.8,9.6c-5.4,2.3-11.3,3.5-17,5.2
	C452.3,73.3,451.7,73.4,450.5,73.7z"/>
<path id="XMLID_88_" class="st0" d="M507.9,76.9c4.2-2.6,8.4-5.3,12.6-7.9c-0.1-0.3-0.2-0.7-0.3-1c-1.1,0.1-2.6-0.1-3.3,0.5
	c-3.2,2.6-6.3,5.5-9.4,8.2C507.7,76.8,507.8,76.8,507.9,76.9z"/>
<path id="XMLID_87_" class="st0" d="M506.5,74.6c3-2.5,6.1-5.1,9.2-7.6C513.9,65.2,508.1,69.8,506.5,74.6z"/>
</svg>
