<svg xmlns="http://www.w3.org/2000/svg" class="svg-inline icon-sparkles-left" viewBox="0 0 60 60">
  <g fill-rule="nonzero" fill="none">
    <path d="M20.625 0c0 15.833-8.557 30-20.625 30 12.068 0 20.625 14.167 20.625 30 0-15.833 8.557-30 20.625-30-12.068 0-20.625-14.167-20.625-30z" fill="#FFE54D"/>
    <path d="M49.688 0c0 7.917-4.278 15-10.313 15 6.035 0 10.313 7.084 10.313 15 0-7.916 4.277-15 10.312-15-6.035 0-10.313-7.083-10.313-15z" fill="#6ADBC6"/>
    <path d="M45 30c0 7.917-4.278 15-10.313 15C40.722 45 45 52.084 45 60c0-7.916 4.278-15 10.313-15C49.278 45 45 37.917 45 30z" fill="#FF73C0"/>
  </g>
</svg>
